<svg width="30" height="30" viewBox="0 0 30 30" fill="none" xmlns="http://www.w3.org/2000/svg">
<g clip-path="url(#clip0)">
<path d="M29.8482 11.3702C29.4838 10.2483 28.5139 9.43074 27.3466 9.26111L20.7353 8.30045L17.7791 2.30995C17.2571 1.25208 16.1798 0.582458 15.0003 0.582458H15.0002C13.8207 0.582458 12.7433 1.25216 12.2213 2.30986L9.26479 8.30045L2.65339 9.26111C1.4861 9.43074 0.516272 10.2484 0.15173 11.3702C-0.21273 12.492 0.0912754 13.7235 0.9359 14.5469L5.71988 19.2102L4.59024 25.7946C4.39079 26.9572 4.86873 28.1322 5.82303 28.8256C6.77741 29.519 8.04257 29.6104 9.08665 29.0614L15.0002 25.9526L20.9136 29.0614C21.367 29.2999 21.8621 29.4175 22.3554 29.4175C22.9979 29.4175 23.6373 29.2179 24.1772 28.8256C25.1316 28.1322 25.6095 26.9572 25.41 25.7946L24.2804 19.2101L29.0642 14.5467C29.9088 13.7234 30.2128 12.4919 29.8482 11.3702Z" fill="#FBCE0E"/>
</g>
<defs>
<clipPath id="clip0">
<rect width="30" height="30" fill="white"/>
</clipPath>
</defs>
</svg>
