<svg width="21" height="30" viewBox="0 0 21 30" fill="none" xmlns="http://www.w3.org/2000/svg">
<path d="M10.7449 0.922852C5.35436 0.922852 0.96875 5.30846 0.96875 10.699C0.96875 17.4743 10.7545 29.0478 10.7545 29.0478C10.7545 29.0478 20.521 17.1411 20.521 10.699C20.521 5.30846 16.1356 0.922852 10.7449 0.922852ZM13.6945 13.5614C12.8812 14.3746 11.8131 14.7812 10.7449 14.7812C9.6768 14.7812 8.60837 14.3746 7.79538 13.5614C6.16889 11.9351 6.16889 9.28877 7.79538 7.66228C8.58297 6.87435 9.63062 6.44039 10.7449 6.44039C11.8591 6.44039 12.9066 6.87452 13.6945 7.66228C15.321 9.28877 15.321 11.9351 13.6945 13.5614Z" fill="#263149"/>
</svg>
