<svg width="30" height="30" viewBox="0 0 30 30" fill="none" xmlns="http://www.w3.org/2000/svg">
<path d="M21.8792 0H8.12071C3.64288 0 0 3.64288 0 8.12071V21.8795C0 26.3571 3.64288 29.9999 8.12071 29.9999H21.8795C26.3571 29.9999 29.9999 26.3571 29.9999 21.8795V8.12071C29.9999 3.64288 26.3571 0 21.8792 0V0ZM15 23.2029C10.4768 23.2029 6.79709 19.5231 6.79709 15C6.79709 10.4768 10.4768 6.79709 15 6.79709C19.5231 6.79709 23.2029 10.4768 23.2029 15C23.2029 19.5231 19.5231 23.2029 15 23.2029ZM23.399 8.7316C22.0623 8.7316 20.9751 7.64441 20.9751 6.30774C20.9751 4.97108 22.0623 3.88366 23.399 3.88366C24.7357 3.88366 25.8231 4.97108 25.8231 6.30774C25.8231 7.64441 24.7357 8.7316 23.399 8.7316Z" fill="white"/>
<path d="M14.9988 8.55591C11.4457 8.55591 8.55469 11.4467 8.55469 15.0001C8.55469 18.5532 11.4457 21.4442 14.9988 21.4442C18.5522 21.4442 21.443 18.5532 21.443 15.0001C21.443 11.4467 18.5522 8.55591 14.9988 8.55591Z" fill="white"/>
<path d="M23.3995 5.64258C23.0328 5.64258 22.7344 5.94104 22.7344 6.30771C22.7344 6.67438 23.0328 6.97284 23.3995 6.97284C23.7664 6.97284 24.0649 6.6746 24.0649 6.30771C24.0649 5.94081 23.7664 5.64258 23.3995 5.64258Z" fill="white"/>
</svg>
