<svg width="30" height="30" viewBox="0 0 30 30" fill="none" xmlns="http://www.w3.org/2000/svg">
<g clip-path="url(#clip0)">
<path d="M13.2114 0C5.92682 0 0 5.92682 0 13.2114C0 20.4963 5.92682 26.4227 13.2114 26.4227C20.4963 26.4227 26.4227 20.4963 26.4227 13.2114C26.4227 5.92682 20.4963 0 13.2114 0ZM13.2114 23.9838C7.27154 23.9838 2.43902 19.1512 2.43902 13.2114C2.43902 7.2716 7.27154 2.43902 13.2114 2.43902C19.1512 2.43902 23.9837 7.27154 23.9837 13.2114C23.9837 19.1512 19.1512 23.9838 13.2114 23.9838Z" fill="black"/>
<path d="M29.6439 27.9183L22.652 20.9264C22.1756 20.45 21.4041 20.45 20.9276 20.9264C20.4512 21.4024 20.4512 22.1748 20.9276 22.6508L27.9195 29.6427C28.1577 29.8809 28.4695 30 28.7817 30C29.0935 30 29.4057 29.8809 29.6439 29.6427C30.1204 29.1667 30.1204 28.3943 29.6439 27.9183Z" fill="black"/>
</g>
<defs>
<clipPath id="clip0">
<rect width="30" height="30" fill="white"/>
</clipPath>
</defs>
</svg>
