<svg width="30" height="30" viewBox="0 0 30 30" fill="none" xmlns="http://www.w3.org/2000/svg">
<path d="M14.6484 20.5664H15.3516C18.744 20.5664 21.5039 17.8065 21.5039 14.4141V6.21094C21.5039 2.78619 18.744 0 15.3516 0H14.6484C11.2598 0 8.50219 2.78016 8.49609 6.19969V14.4141C8.49609 17.8065 11.256 20.5664 14.6484 20.5664ZM14.6484 1.75781H15.3516C17.5985 1.75781 19.4559 3.4759 19.7142 5.68359H18.2812C17.7959 5.68359 17.4023 6.07711 17.4023 6.5625C17.4023 7.04789 17.7959 7.44141 18.2812 7.44141H19.7461V9.43359H17.3438C16.8584 9.43359 16.4648 9.82711 16.4648 10.3125C16.4648 10.7979 16.8584 11.1914 17.3438 11.1914H19.7461V13.1836H18.2812C17.7959 13.1836 17.4023 13.5771 17.4023 14.0625C17.4023 14.5479 17.7959 14.9414 18.2812 14.9414H19.7133C19.4518 17.1167 17.5962 18.8086 15.3516 18.8086H14.6484C12.4039 18.8086 10.5482 17.1167 10.2867 14.9414H11.7188C12.2041 14.9414 12.5977 14.5479 12.5977 14.0625C12.5977 13.5771 12.2041 13.1836 11.7188 13.1836H10.2539V11.1914H12.6562C13.1416 11.1914 13.5352 10.7979 13.5352 10.3125C13.5352 9.82711 13.1416 9.43359 12.6562 9.43359H10.2539V7.44141H11.7188C12.2041 7.44141 12.5977 7.04789 12.5977 6.5625C12.5977 6.07711 12.2041 5.68359 11.7188 5.68359H10.2858C10.5441 3.4759 12.4015 1.75781 14.6484 1.75781Z" fill="black"/>
<path d="M25.2539 14.0625C25.2539 13.5771 24.8604 13.1836 24.375 13.1836C23.8896 13.1836 23.4961 13.5771 23.4961 14.0625C23.4961 18.7472 19.6847 22.5586 15 22.5586C10.3153 22.5586 6.50391 18.7472 6.50391 14.0625C6.50391 13.5771 6.11039 13.1836 5.625 13.1836C5.13961 13.1836 4.74609 13.5771 4.74609 14.0625C4.74609 19.4204 8.87701 23.831 14.1211 24.2783V28.2422H9.375C8.88961 28.2422 8.49609 28.6357 8.49609 29.1211C8.49609 29.6065 8.88961 30 9.375 30H20.625C21.1104 30 21.5039 29.6065 21.5039 29.1211C21.5039 28.6357 21.1104 28.2422 20.625 28.2422H15.8789V24.2783C21.123 23.831 25.2539 19.4204 25.2539 14.0625V14.0625Z" fill="black"/>
</svg>
