<svg width="30" height="30" viewBox="0 0 30 30" fill="none" xmlns="http://www.w3.org/2000/svg">
<g clip-path="url(#clip0)">
<path d="M29.4921 7.65966C29.1763 7.46436 28.7818 7.44653 28.4496 7.61251L21.4285 11.1236V8.5714C21.4285 6.7962 19.9895 5.35712 18.2143 5.35712H3.21428C1.43908 5.35712 0 6.7962 0 8.5714V21.4285C0 23.2037 1.43908 24.6428 3.21428 24.6428H18.2143C19.9895 24.6428 21.4285 23.2037 21.4285 21.4285V18.8764L28.4496 22.3928C28.979 22.6573 29.6224 22.4427 29.887 21.9133C29.9622 21.7628 30.0009 21.5967 30 21.4285V8.5714C30.0002 8.2 29.808 7.85503 29.4921 7.65966ZM19.2857 21.4285C19.2857 22.0203 18.806 22.5 18.2143 22.5H3.21428C2.62253 22.5 2.14283 22.0203 2.14283 21.4285V8.5714C2.14283 7.97965 2.62253 7.49995 3.21428 7.49995H18.2143C18.806 7.49995 19.2857 7.97965 19.2857 8.5714V21.4285ZM27.8571 19.695L21.4285 16.4807V13.5193L27.8571 10.305V19.695V19.695Z" fill="black"/>
<path d="M10.7154 10.7143C8.34846 10.7143 6.42969 12.6331 6.42969 15C6.42969 17.367 8.34846 19.2857 10.7154 19.2857C13.0824 19.2857 15.0012 17.367 15.0012 15C15.0012 12.6331 13.0823 10.7143 10.7154 10.7143ZM10.7154 17.1428C9.53197 17.1428 8.57258 16.1835 8.57258 15C8.57258 13.8166 9.53197 12.8572 10.7154 12.8572C11.8989 12.8572 12.8583 13.8166 12.8583 15C12.8583 16.1835 11.8989 17.1428 10.7154 17.1428Z" fill="black"/>
</g>
<defs>
<clipPath id="clip0">
<rect width="30" height="30" fill="white"/>
</clipPath>
</defs>
</svg>
